<svg xmlns="http://www.w3.org/2000/svg" xmlns:xlink="http://www.w3.org/1999/xlink" width="100%" height="100%" fill-rule="evenodd" stroke-linejoin="round" stroke-miterlimit="1.414" clip-rule="evenodd" version="1.1" viewBox="0 0 800 400" xml:space="preserve"><rect width="800" height="400" x="0" y="0" fill="#fff"/><g><g><text x="0" y="0" font-family="'Arial-BoldMT', 'Arial', sans-serif" font-size="13" font-weight="700" transform="matrix(1,0,0,1,134,54.05)">T<tspan x="7.706 11.318" y="0 0">im</tspan>e to parse canada.json</text></g><rect width="533" height="13" x="134" y="43" fill="#fff" fill-opacity="0"/></g><g><rect width="107" height="13" x="680" y="77" fill="#fff" fill-opacity="0"/><g><rect width="107" height="13" x="680" y="77" fill="#fff" fill-opacity="0"/><g><text x="0" y="0" fill="#222" font-family="'ArialMT', 'Arial', sans-serif" font-size="13" transform="matrix(1,0,0,1,711,88.05)">milliseconds</text></g><rect width="26" height="13" x="680" y="77" fill="#36C"/></g></g><g><rect width="533" height="247" x="134" y="77" fill="#fff" fill-opacity="0"/><g><g><rect width="1" height="247" x="134" y="77" fill="#CCC"/><rect width="1" height="247" x="267" y="77" fill="#CCC"/><rect width="1" height="247" x="400" y="77" fill="#CCC"/><rect width="1" height="247" x="533" y="77" fill="#CCC"/><rect width="1" height="247" x="666" y="77" fill="#CCC"/></g><g><rect width="63" height="38" x="135" y="89" fill="#36C"/><rect width="191" height="38" x="135" y="151" fill="#36C"/><rect width="377" height="38" x="135" y="212" fill="#36C"/><rect width="510" height="38" x="135" y="274" fill="#36C"/></g><rect width="1" height="247" x="134" y="77" fill="#333"/></g><g><g><text x="-3.615" y="0" fill="#444" font-family="'ArialMT', 'Arial', sans-serif" font-size="13" transform="matrix(1,0,0,1,134.5,343.05)">0</text></g><g><text x="-7.23" y="0" fill="#444" font-family="'ArialMT', 'Arial', sans-serif" font-size="13" transform="matrix(1,0,0,1,267.5,343.05)">25</text></g><g><text x="-7.23" y="0" fill="#444" font-family="'ArialMT', 'Arial', sans-serif" font-size="13" transform="matrix(1,0,0,1,400.5,343.05)">50</text></g><g><text x="-7.23" y="0" fill="#444" font-family="'ArialMT', 'Arial', sans-serif" font-size="13" transform="matrix(1,0,0,1,533.5,343.05)">75</text></g><g><text x="-10.845" y="0" fill="#444" font-family="'ArialMT', 'Arial', sans-serif" font-size="13" transform="matrix(1,0,0,1,666.5,343.05)">100</text></g><g><text x="-44.808" y="0" fill="#222" font-family="'ArialMT', 'Arial', sans-serif" font-size="13" transform="matrix(1,0,0,1,121,112.8)">ujson4c</text></g><g><text x="-24.572" y="0" fill="#222" font-family="'ArialMT', 'Arial', sans-serif" font-size="13" transform="matrix(1,0,0,1,121,174.3)">pest</text></g><g><text x="-25.289" y="0" fill="#222" font-family="'ArialMT', 'Arial', sans-serif" font-size="13" transform="matrix(1,0,0,1,121,235.8)">nom</text></g><g><text x="-106.92" y="0" fill="#222" font-family="'ArialMT', 'Arial', sans-serif" font-size="13" transform="matrix(1,0,0,1,121,297.3)">pest (custom <tspan x="-29.612 -20.941" y="0 0">AS</tspan>T)</text></g></g></g></svg>